<?xml version="1.0"?>
<svg xmlns="http://www.w3.org/2000/svg" viewBox="0 0 512 512" width="512" height="512"><g id="Filled_outline" data-name="Filled outline"><path d="M270.225,315.681,256,312v16H240v16H224v16H208v56l24,24,24-32V376l16-16C281.373,350.627,288,328,270.225,315.681Z" style="fill:#5f9548"/><path d="M297.941,49.941,272,24l-8,8-16-8-8,8-16-8-8,8-16-8V40a24,24,0,0,0,24,24h24l16,16V96l48,8V83.882A48,48,0,0,0,297.941,49.941Z" style="fill:#5f9548"/><path d="M488,292c0,108.25-87.75,196-196,196H24a49.246,49.246,0,0,1,38.47-48.09c.22-.05.44-.1.67-.15l205.25-43.21A75.081,75.081,0,0,0,252.92,248H191.11a63.874,63.874,0,0,1-28.62-6.76L96,208H48a24.006,24.006,0,0,1-24-24v-8H152l7.8-15.6a29.666,29.666,0,0,1,25.56-16.37c-.45-.01-.9-.03-1.36-.03H144l-16,8-16-8h-8l-16,8-16-8H64l-16,8-16-8H24V121.89A25.9,25.9,0,0,1,61.47,98.73l5.06,2.54A26.007,26.007,0,0,0,78.11,104H128l6.06-6.06A61.249,61.249,0,0,1,177.37,80,54.636,54.636,0,0,1,216,96h76a195.046,195.046,0,0,1,102.22,28.74v.01A196.152,196.152,0,0,1,488,292Z" style="fill:#7eb457"/><path d="M488,292c0,108.25-87.75,196-196,196H223.25c120.49-39.99,293.41-139.2,170.97-363.25A196.152,196.152,0,0,1,488,292Z" style="fill:#79ad54"/><path d="M232,240v16l-16,16H192a24,24,0,0,0-24,24v16l16-8,8,8,16-8,8,8,16-8,8,8,25.941-25.941A48,48,0,0,0,280,252.118V224Z" style="fill:#7eb457"/><path d="M492.319,425.775C480,408,457.373,414.627,448,424l-16,16H416l-48,24,9.941,9.941A48,48,0,0,0,411.882,488H448V472h16V456h16V440h16Z" style="fill:#79ad54"/><path d="M186.334,144h0A29.666,29.666,0,0,0,159.8,160.4L152,176H24v8a24,24,0,0,0,24,24H186.334A29.666,29.666,0,0,0,216,178.334v-4.668A29.666,29.666,0,0,0,186.334,144Z" style="fill:#d0d24b"/><path d="M72.84,455.74c-8.23.17-16.59.26-24.84.26V445.68a49.148,49.148,0,0,1,14.47-5.77q5.04-.06,10.04-.16Z" style="fill:#88c25e"/><rect x="168" y="104" width="16" height="16"/><path d="M492.064,423.771a7.985,7.985,0,0,0-1.17-2.554,32.536,32.536,0,0,0-24.415-14.445,36.92,36.92,0,0,0-5.824-.038A203.906,203.906,0,0,0,496,292c0-102.987-76.716-188.38-176-202.07V83.882a55.634,55.634,0,0,0-16.4-39.6L277.657,18.343a8,8,0,0,0-11.314,0l-3.923,3.923-10.842-5.421a8,8,0,0,0-9.235,1.5l-3.923,3.923-10.842-5.421a8,8,0,0,0-9.235,1.5l-3.923,3.923-10.842-5.421A8,8,0,0,0,192,24V40a32.036,32.036,0,0,0,32,32h20.686L256,83.314V88H219.186a62.171,62.171,0,0,0-41.813-16A68.809,68.809,0,0,0,128.4,92.284L124.686,96H78.111a17.98,17.98,0,0,1-8-1.888l-5.067-2.534A33.889,33.889,0,0,0,16,121.889V144a8,8,0,0,0,8,8h6.111l14.311,7.155a8,8,0,0,0,7.156,0L65.889,152h4.222l14.311,7.155a8,8,0,0,0,7.156,0L105.889,152h4.222l14.311,7.155a8,8,0,0,0,7.156,0L145.889,152h9.633l-.016.026c-.455.65-.885,1.322-1.3,2.006-.072.119-.153.232-.224.352-.47.792-.918,1.6-1.334,2.437L147.056,168H24a8,8,0,0,0-8,8v8a32.036,32.036,0,0,0,32,32H94.111l64.8,32.4a72.352,72.352,0,0,0,32.2,7.6h29.578l-8,8H192a32.036,32.036,0,0,0-32,32v16a8,8,0,0,0,11.578,7.155l10.842-5.421,3.923,3.923a8,8,0,0,0,9.235,1.5l10.842-5.421,3.923,3.923a8,8,0,0,0,9.235,1.5l10.842-5.421,3.923,3.923a8,8,0,0,0,11.314,0L248,315.313V320h-8a8,8,0,0,0-8,8v8h-8a8,8,0,0,0-8,8v8h-8a8,8,0,0,0-8,8v42.772L61.494,431.931A57.556,57.556,0,0,0,16,488a8,8,0,0,0,8,8H292a202.79,202.79,0,0,0,74.716-14.122A55.586,55.586,0,0,0,403.882,496H440a8,8,0,0,0,8-8v-8h8a8,8,0,0,0,8-8v-8h8a8,8,0,0,0,8-8v-8h8a8,8,0,0,0,7.745-10ZM269.657,74.343l-16-16A8,8,0,0,0,248,56H224a16.019,16.019,0,0,1-16-16V36.944l4.422,2.211a8,8,0,0,0,9.235-1.5l3.923-3.923,10.842,5.421a8,8,0,0,0,9.235-1.5l3.923-3.923,10.842,5.421a8,8,0,0,0,9.235-1.5L272,35.314,292.284,55.6A39.738,39.738,0,0,1,304,83.882v4.48c-3.972-.231-7.97-.362-12-.362H272V80A8,8,0,0,0,269.657,74.343ZM48,200a16.019,16.019,0,0,1-16-16H152a8,8,0,0,0,7.155-4.422l7.8-15.6q.336-.674.714-1.313a21.641,21.641,0,0,1,17.952-10.634c.036,0,.071-.007.107-.009.2-.006.4-.021.6-.021A21.69,21.69,0,0,1,208,173.666v4.668A21.69,21.69,0,0,1,186.334,200Zm238.5,65.013a67.079,67.079,0,0,1-19.763,123.709L264,389.3v-9.985l13.657-13.656c6.6-6.6,12.743-19.1,11.571-32.136a32.536,32.536,0,0,0-14.445-24.415,7.985,7.985,0,0,0-2.554-1.17l-13.387-3.464L271.6,291.716A55.631,55.631,0,0,0,286.5,265.013ZM216,368h8a8,8,0,0,0,8-8v-8h8a8,8,0,0,0,8-8v-8h8a8,8,0,0,0,8-8v-5.667l2.73.707a16.559,16.559,0,0,1,6.562,11.913,26.4,26.4,0,0,1-6.949,19.39l-16,16A8,8,0,0,0,248,376v16.667L216,399.4Zm256,64a8,8,0,0,0-8,8v8h-8a8,8,0,0,0-8,8v8h-8a8,8,0,0,0-8,8v8H403.882A39.738,39.738,0,0,1,375.6,468.284l-9.941-9.941-10.93,10.93A187.037,187.037,0,0,1,292,480H178.718c7-.661,13.926-1.352,20.679-2.074l-1.7-15.909c-10.3,1.1-20.982,2.138-31.757,3.086l1.311,14.9H135.021l-.878-12.374c-10.607.753-21.319,1.424-31.839,2L102.868,480h-32.1l-.325-8.926c-11.143.4-21.86.681-31.854.821L38.7,480h-5.91A41.637,41.637,0,0,1,48,455.423V456c8.252,0,16.609-.086,24.839-.255l-.2-9.809,31.71-6.675.742,15.378c10.888-.526,21.727-1.21,32.217-2.033l-1.251-15.951c-9.1.714-18.463,1.314-27.893,1.8l161.873-34.079A83.088,83.088,0,0,0,288,247.757V224H272v28.118A39.738,39.738,0,0,1,260.284,280.4L240,300.686l-2.343-2.343a8,8,0,0,0-9.235-1.5l-10.842,5.421-3.923-3.923a8,8,0,0,0-9.235-1.5l-10.842,5.421-3.923-3.923a8,8,0,0,0-9.235-1.5L176,299.056V296a16.019,16.019,0,0,1,16-16h24a8,8,0,0,0,5.657-2.343l16-16A8,8,0,0,0,240,256V240H191.108a56.285,56.285,0,0,1-25.044-5.912L129.888,216h56.446A37.708,37.708,0,0,0,224,178.334v-4.668a38.181,38.181,0,0,0-20.923-33.581c-8.468-4.3-17.367-4.085-26.538-4.085H144a7.994,7.994,0,0,0-3.578.845L128,143.056l-12.422-6.211A7.994,7.994,0,0,0,112,136h-8a7.994,7.994,0,0,0-3.578.845L88,143.056l-12.422-6.211A7.994,7.994,0,0,0,72,136H64a7.994,7.994,0,0,0-3.578.845L48,143.056l-12.422-6.211A7.994,7.994,0,0,0,32,136V121.889a17.888,17.888,0,0,1,25.889-16l5.067,2.533A34.052,34.052,0,0,0,78.111,112H128a8,8,0,0,0,5.657-2.343l6.058-6.059A52.912,52.912,0,0,1,177.373,88a46.32,46.32,0,0,1,32.97,13.657A8,8,0,0,0,216,104h76c103.664,0,188,84.337,188,188a187.991,187.991,0,0,1-62.548,140H408v16h16a8,8,0,0,0,5.657-2.343l16-16a26.391,26.391,0,0,1,19.39-6.949,16.559,16.559,0,0,1,11.913,6.562l.707,2.73Z"/><path d="M363.893,425.665a88.163,88.163,0,0,1-11.777,5.92l6.234,14.736a104.109,104.109,0,0,0,13.941-7.037,177.618,177.618,0,0,0,15.151-10.472l-9.771-12.671A161.362,161.362,0,0,1,363.893,425.665Z"/><path d="M292.043,448.285l3.116,15.694c11.6-2.3,22.279-4.747,31.729-7.262l-4.116-15.462C313.652,443.683,303.314,446.048,292.043,448.285Z"/><path d="M439.728,283.669l15.971-.962a164.929,164.929,0,0,0-5.415-33.125l-15.444,4.183A148.889,148.889,0,0,1,439.728,283.669Z"/><rect x="240" y="128" width="32" height="16"/><path d="M229.319,458.3l2.049,15.868c11.12-1.436,21.864-2.969,31.934-4.558L260.808,453.8C250.886,455.37,240.291,456.882,229.319,458.3Z"/><path d="M431.025,343.354l15.047,5.438a167.581,167.581,0,0,0,8.2-32.53l-15.83-2.325A151.522,151.522,0,0,1,431.025,343.354Z"/><path d="M431.7,379.037l-13.729-8.217a163.031,163.031,0,0,1-18.024,24.548L411.9,406A179.094,179.094,0,0,0,431.7,379.037Z"/><path d="M396.569,166.057a165.393,165.393,0,0,0-27.849-18.739l-7.534,14.115a149.386,149.386,0,0,1,25.149,16.923Z"/><path d="M337.633,134.623a164.6,164.6,0,0,0-33.011-6.087l-1.283,15.948a148.636,148.636,0,0,1,29.8,5.494Z"/><path d="M438.227,218.245a165.235,165.235,0,0,0-18.169-28.22l-12.5,9.984a149.215,149.215,0,0,1,16.406,25.481Z"/><path d="M303.445,184.249a101.821,101.821,0,0,1,28.888,6.211l5.622-14.98a117.78,117.78,0,0,0-33.424-7.194Z"/><path d="M413.886,313.765l-15.681-3.175a99.474,99.474,0,0,1-10.08,27.73l14.063,7.631A115.455,115.455,0,0,0,413.886,313.765Z"/><path d="M381.812,373.284l-11.4-11.226a145.137,145.137,0,0,1-23.491,19.05l8.812,13.355A161.091,161.091,0,0,0,381.812,373.284Z"/><path d="M399.8,281.052l15.937-1.426a124.5,124.5,0,0,0-7.685-33.209L393.1,252.111A108.482,108.482,0,0,1,399.8,281.052Z"/><rect x="240" y="168" width="32" height="16"/><path d="M326.757,410.538l-6.788-14.489a304.694,304.694,0,0,1-28.912,11.675l5.262,15.11A320.433,320.433,0,0,0,326.757,410.538Z"/><path d="M378.864,226l12.882-9.49a121.583,121.583,0,0,0-23.874-24.4l-9.737,12.7A105.611,105.611,0,0,1,378.864,226Z"/><path d="M167.674,433.646l1.793,15.9c10.965-1.236,21.754-2.663,32.068-4.241l-2.42-15.816C189.008,431.035,178.43,432.434,167.674,433.646Z"/><path d="M230.279,423.984l3.17,15.683c10.981-2.22,21.631-4.69,31.654-7.342l-4.092-15.468C251.292,419.429,240.952,421.826,230.279,423.984Z"/></g></svg>
