<svg id="Capa_1" enable-background="new 0 0 511.98 511.98" height="512" viewBox="0 0 511.98 511.98" width="512" xmlns="http://www.w3.org/2000/svg"><g><path d="m296.414 429.443-90.831-90.831 116.803-158.817c34.472-46.872 102.595-52.035 143.737-10.892 41.142 41.142 35.98 109.265-10.892 143.737z" fill="#4e5660"/><path d="m322.386 179.795-116.803 158.817 90.831 90.831 72.115-53.038c2.332-10.617 3.517-21.838 3.517-33.601 0-18.396-2.895-36.517-8.605-53.86-.021-.064.027-.407.398-.671 31.279-22.237 47.813-54.849 47.813-94.311 0-18.464-4.387-36.386-12.647-52.89-28.992-.003-57.813 13.152-76.619 38.723z" fill="#3a4351"/><g fill="#d2896f"><path d="m94.514 494.289c-13.614-13.615-13.614-35.688 0-49.302l41.06-41.059c13.616-13.614 35.689-13.613 49.302 0 13.615 13.615 13.615 35.688 0 49.302l-41.06 41.059c-13.614 13.613-35.687 13.616-49.302 0z"/><path d="m255.859 494.289-41.059-41.059c-13.614-13.615-13.614-35.688 0-49.302 13.615-13.614 35.687-13.614 49.302 0l41.059 41.059c13.614 13.615 13.614 35.688 0 49.302-13.615 13.615-35.686 13.615-49.302 0z"/><path d="m60.111 59.508c15.549 15.549 43.591 27.356 55.283 15.664s-.114-39.734-15.664-55.283c-10.941-10.941-28.679-10.941-39.619 0s-10.94 28.679 0 39.619z"/><path d="m339.565 59.508c-15.549 15.549-43.591 27.356-55.283 15.664s.114-39.734 15.664-55.283c10.941-10.941 28.679-10.941 39.619 0s10.94 28.679 0 39.619z"/></g><path d="m381.652 193.962c0-30.384-15.985-57.808-41.653-77.29-3.471-2.634-5.807-6.491-6.557-10.783-9.726-55.682-65.833-98.389-133.604-98.389s-123.878 42.707-133.604 98.389c-.75 4.292-3.086 8.148-6.557 10.783-25.667 19.482-41.653 46.906-41.653 77.29 0 23.844 7.288 50.02 35.195 69.86 10.987 7.811 15.705 21.746 11.495 34.553-4.596 13.978-7.084 28.913-7.084 44.429 0 78.539 63.669 113.634 142.208 113.634s142.208-35.095 142.208-113.634c0-15.517-2.488-30.451-7.084-44.429-4.211-12.807.507-26.741 11.495-34.553 27.907-19.84 35.195-46.015 35.195-69.86z" fill="#e0b799"/><path d="m53.219 263.822c10.988 7.812 15.705 21.747 11.495 34.554-4.596 13.978-7.083 28.913-7.083 44.429 0 78.539 63.669 113.634 142.208 113.634 27.133 0 52.49-4.192 74.061-12.913-134.646-12.639-172.667-104.957-161.424-162.579 1.009-5.17.39-10.534-1.868-15.293-42.429-89.409-10.822-193.735 15.741-239.558-31.731 17.641-54.27 46.369-60.112 79.774-.752 4.299-3.085 8.164-6.562 10.803-25.667 19.482-41.651 46.905-41.651 77.289 0 23.844 7.288 50.02 35.195 69.86z" fill="#d99a84"/><path d="m119.994 364.168c-6.724-7.146-13.128-15.046-18.033-22.243-9.325-13.683-5.792-32.334 7.891-41.659 13.684-9.327 32.335-5.792 41.659 7.891 3.149 4.62 7.579 10.06 12.155 14.923 11.346 12.059 10.768 31.034-1.292 42.38-12.03 11.318-31.007 10.797-42.38-1.292z" fill="#d2896f"/><path d="m237.303 365.459c-12.06-11.346-12.638-30.32-1.292-42.38 4.574-4.862 9.004-10.302 12.156-14.925 9.324-13.683 27.977-17.215 41.659-7.888 13.683 9.326 17.214 27.977 7.888 41.659-4.906 7.2-11.311 15.099-18.032 22.242-11.36 12.077-30.337 12.624-42.379 1.292z" fill="#d2896f"/><g fill="#fff"><path d="m214.293 201.861c-7.984 0-14.456-6.472-14.456-14.456 0 7.983-6.472 14.456-14.455 14.456-2.343 0-4.548-.57-6.505-1.559v24.161c0 7.46 6.047 13.506 13.506 13.506h14.909c7.459 0 13.506-6.047 13.506-13.506v-24.161c-1.956.989-4.162 1.559-6.505 1.559z"/><ellipse cx="119.03" cy="170.813" rx="29.816" ry="23.744"/><ellipse cx="280.645" cy="170.813" rx="29.816" ry="23.744"/></g><path d="m443.478 264.652c4.142 0 7.5-3.358 7.5-7.5v-33.478c0-4.142-3.358-7.5-7.5-7.5s-7.5 3.358-7.5 7.5v33.478c0 4.142 3.358 7.5 7.5 7.5zm-195.883-119.239c4.142 0 7.5-3.358 7.5-7.5 0-3.455 2.811-6.265 6.265-6.265 3.455 0 6.265 2.81 6.265 6.265 0 4.142 3.358 7.5 7.5 7.5s7.5-3.358 7.5-7.5c0-11.726-9.539-21.265-21.265-21.265s-21.265 9.539-21.265 21.265c0 4.142 3.358 7.5 7.5 7.5zm149.541 117.777v27.246c0 4.142 3.358 7.5 7.5 7.5s7.5-3.358 7.5-7.5v-27.246c0-4.142-3.358-7.5-7.5-7.5-4.142-.001-7.5 3.357-7.5 7.5zm-164.973 107.732c15.061 14.171 38.777 13.485 52.981-1.615 6.983-7.421 13.648-15.646 18.768-23.158 2.332-3.423 1.449-8.089-1.974-10.421-3.422-2.333-8.089-1.449-10.421 1.974-4.691 6.884-10.834 14.458-17.297 21.327-8.507 9.043-22.722 9.488-31.777.968-9.049-8.513-9.485-22.728-.968-31.778 4.829-5.133 9.527-10.906 12.89-15.84 2.333-3.423 1.45-8.088-1.973-10.422-3.424-2.333-8.088-1.45-10.422 1.973-2.942 4.316-7.105 9.423-11.421 14.01-14.195 15.088-13.475 38.785 1.614 52.982zm-61.237-191.017c-4.142 0-7.5 3.358-7.5 7.5 0 6.787 3.097 12.864 7.951 16.895v20.163c0 11.583 9.423 21.006 21.006 21.006h14.909c11.583 0 21.006-9.423 21.006-21.006v-20.163c4.854-4.031 7.95-10.107 7.95-16.895 0-4.142-3.358-7.5-7.5-7.5s-7.5 3.358-7.5 7.5c0 3.835-3.12 6.955-6.956 6.955-3.835 0-6.956-3.12-6.956-6.955 0-4.142-3.358-7.5-7.5-7.5s-7.5 3.358-7.5 7.5c0 3.835-3.12 6.955-6.955 6.955-3.836 0-6.956-3.12-6.956-6.955.001-4.142-3.356-7.5-7.499-7.5zm15.451 29.41c5.141-.232 9.83-2.221 13.46-5.405 3.631 3.184 8.32 5.173 13.461 5.405v15.148c0 3.312-2.694 6.006-6.006 6.006h-14.909c-3.312 0-6.006-2.694-6.006-6.006zm-54.326-71.402c0-3.455 2.811-6.265 6.265-6.265 3.455 0 6.265 2.81 6.265 6.265 0 4.142 3.358 7.5 7.5 7.5s7.5-3.358 7.5-7.5c0-11.726-9.539-21.265-21.265-21.265s-21.265 9.539-21.265 21.265c0 4.142 3.358 7.5 7.5 7.5s7.5-3.358 7.5-7.5zm51.099 17.268 11.369 5.056c3.386 1.506 7.252 1.506 10.638 0l11.368-5.056c4.098-1.822 5.548-6.91 3.026-10.619-1.868-2.746-4.667-4.723-7.88-5.564-7.758-2.031-15.909-2.031-23.667 0-3.213.841-6.012 2.818-7.88 5.564-2.522 3.709-1.072 8.796 3.026 10.619zm-85.413 180.546c-3.423 2.333-4.307 6.999-1.974 10.421 5.119 7.512 11.785 15.736 18.768 23.158 14.281 15.18 37.994 15.719 52.982 1.616 15.087-14.194 15.812-37.892 1.615-52.982-4.315-4.587-8.478-9.693-11.42-14.008-2.333-3.423-7-4.306-10.421-1.972-3.422 2.333-4.306 6.999-1.972 10.421 3.363 4.934 8.061 10.706 12.889 15.837 8.514 9.049 8.083 23.264-.969 31.778-9.018 8.486-23.235 8.112-31.778-.969-6.463-6.869-12.606-14.443-17.298-21.327-2.335-3.423-7.001-4.306-10.422-1.973zm373.689-172.128c-5.227-5.227-10.994-9.883-17.141-13.838-3.481-2.241-8.124-1.235-10.365 2.249-2.241 3.483-1.234 8.124 2.249 10.366 5.249 3.377 10.178 7.358 14.651 11.83 18.062 18.062 27.314 43.029 25.384 68.499-1.93 25.471-14.839 48.759-35.417 63.893l-108.703 79.946c4.935-13.235 7.461-27.889 7.461-43.74 0-15.982-2.509-31.718-7.459-46.772-3.172-9.648.331-20.136 8.716-26.098 25.447-18.091 38.349-43.652 38.349-75.973 0-15.054-3.543-29.595-10.313-43.054 12.067-2.831 24.651-3.102 36.87-.738 4.064.787 8.001-1.872 8.788-5.939.787-4.066-1.871-8.001-5.938-8.788-15.874-3.073-32.272-2.342-47.786 2.069-6.924-9.794-15.712-18.824-26.24-26.814-1.961-1.488-3.276-3.654-3.703-6.099-1.752-10.028-4.934-19.763-9.415-29.005 4.96-3.214 9.536-6.866 13.453-10.782 13.847-13.847 13.847-36.378 0-50.226-13.848-13.847-36.379-13.847-50.227 0-3.07 3.071-6.01 6.584-8.701 10.373-24.682-16.142-54.922-24.958-86.101-24.958s-61.419 8.816-86.103 24.958c-2.691-3.789-5.631-7.302-8.702-10.373-13.847-13.848-36.379-13.848-50.226 0-13.879 13.879-13.882 36.345 0 50.226 3.916 3.916 8.493 7.568 13.452 10.782-4.48 9.242-7.663 18.977-9.415 29.006-.427 2.444-1.742 4.61-3.703 6.099-28.773 21.839-44.619 51.409-44.619 83.264 0 32.321 12.903 57.882 38.35 75.973 8.385 5.961 11.887 16.449 8.715 26.098-4.949 15.054-7.458 30.79-7.458 46.772 0 14.76 2.167 28.575 6.442 41.061 1.342 3.919 5.606 6.006 9.525 4.666 3.919-1.342 6.008-5.606 4.666-9.525-3.738-10.918-5.634-23.098-5.634-36.202 0-14.388 2.257-28.548 6.708-42.086 5.238-15.931-.498-33.215-14.273-43.009-21.56-15.328-32.041-36.179-32.041-63.747 0-27.053 13.739-52.38 38.687-71.316 4.988-3.786 8.33-9.279 9.411-15.466 8.747-50.073 59.804-92.181 126.218-92.181 66.688 0 117.511 42.343 126.216 92.179 1.081 6.188 4.423 11.681 9.411 15.467 22.832 17.329 38.687 42.081 38.687 71.316 0 27.567-10.48 48.419-32.04 63.747-13.776 9.793-19.512 27.078-14.274 43.008 4.452 13.539 6.708 27.699 6.708 42.087 0 74.273-60.7 106.134-134.708 106.134-50.087 0-90.133-14.62-112.761-41.168-2.687-3.152-7.42-3.528-10.573-.843-3.152 2.687-3.53 7.421-.843 10.573 5.391 6.325 11.621 12.043 18.593 17.139-1.97 2.673-17.451 13.052-17.451 34.998 0 11.315 4.406 21.953 12.408 29.954 8.259 8.259 19.104 12.389 29.954 12.388 10.847-.001 21.697-4.13 29.955-12.388l36.067-36.066c9.529.541 19.389.559 29.304.001l36.065 36.065c8.258 8.258 19.107 12.387 29.954 12.387 10.848 0 21.696-4.129 29.955-12.387 8.001-8.001 12.408-18.639 12.408-29.954 0-21.894-15.429-32.261-17.429-34.975 5.93-4.348 11.285-9.143 16.051-14.356l138.18-101.625c24.104-17.728 39.226-45.007 41.487-74.843 2.26-29.835-8.578-59.081-29.736-80.239zm-395.739-101.077c-3.799-2.531-7.329-5.374-10.272-8.317-8.017-8.017-8.019-20.994 0-29.013 7.999-8 21.015-7.999 29.012 0 2.535 2.535 4.973 5.464 7.21 8.637-10.311 8.457-19.036 18.141-25.95 28.693zm248.302 0c-6.915-10.552-15.639-20.237-25.95-28.693 2.238-3.173 4.674-6.102 7.21-8.637 7.998-7.999 21.014-7.999 29.013 0s7.999 21.014 0 29.013c-2.944 2.944-6.474 5.786-10.273 8.317zm-185.476 426.463c-10.669 10.669-28.028 10.668-38.696 0-10.693-10.693-10.694-28.001 0-38.695l7.385-7.385c16.611 9.242 36.404 15.581 58.662 18.729zm161.345 0c-10.669 10.668-28.027 10.668-38.696 0l-27.337-27.337c22.24-3.127 42.046-9.432 58.685-18.706l7.347 7.348c10.694 10.693 10.696 28.002.001 38.695z"/></g></svg>