<?xml version="1.0"?>
<svg xmlns="http://www.w3.org/2000/svg" viewBox="0 0 512 512" width="512" height="512"><g id="Filled_outline" data-name="Filled outline"><path d="M354.933,109.466h0A19.776,19.776,0,0,1,344,91.777h0A19.776,19.776,0,0,1,360,72.37V40l-7.716-7.716a28.284,28.284,0,0,0-20-8.284h0A28.284,28.284,0,0,0,304,52.284v31.54a58.533,58.533,0,0,0,32.356,52.354h0A57.243,57.243,0,0,1,368,187.378h0a57.244,57.244,0,0,1-22.9,45.8L336,240v64l29.251-19.5A96,96,0,0,0,408,204.622v-9.291A96,96,0,0,0,354.933,109.466Z" style="fill:#cfcfcd"/><path d="M433.778,440.3l-25.7-42.831A27.738,27.738,0,0,0,384.3,384H288l16.585-77.4A28.61,28.61,0,0,0,276.61,272h0A28.61,28.61,0,0,0,248,300.61V416H384l24,40-3.407,6.814a14.249,14.249,0,0,0,2.669,16.448h0a14.247,14.247,0,0,0,18.624,1.323h0A30.648,30.648,0,0,0,433.778,440.3Z" style="fill:#bfbfbd"/><path d="M367.791,192A57.231,57.231,0,0,1,345.1,233.173L336,240v64l29.251-19.5A96,96,0,0,0,408,204.622v-9.291q0-1.669-.059-3.331Z" style="fill:#404f66"/><path d="M360,256v2.16c.01,38.56-31.25,69.83-70.61,69.83h-3.77a144.114,144.114,0,0,1-99-39.34h-.01a143.949,143.949,0,0,1-27.64-35.86L152,240l-15.01,12.01a15.108,15.108,0,0,1-9.54,3.4A15.385,15.385,0,0,1,112,240L96.99,252.01a15.108,15.108,0,0,1-9.54,3.4A15.385,15.385,0,0,1,72,240a56,56,0,0,1,56-56H288a72,72,0,0,1,72,72Z" style="fill:#4d5e78"/><path d="M360,256v2.16c.01,38.56-31.25,69.83-70.61,69.83h-3.77a144.114,144.114,0,0,1-99-39.34c53.13-17.9,107.14-43.77,154.63-81.11A71.731,71.731,0,0,1,360,256Z" style="fill:#485870"/><path d="M363.777,72h23.035A13.188,13.188,0,0,0,389.4,45.88L360,40V72.37A19.833,19.833,0,0,1,363.777,72Z" style="fill:#ffb531"/><path d="M236.269,271.178,152,336l-24,88L80,456l-7.523-3.761A13.149,13.149,0,0,0,57.3,454.7h0a13.15,13.15,0,0,0,0,18.6l8.325,8.325A21.772,21.772,0,0,0,81.018,488h0a21.777,21.777,0,0,0,12.662-4.06l51.844-37.06a36.871,36.871,0,0,0,13.208-17.394L184,360l54.135-24.06a151.606,151.606,0,0,0,33.131-20.152h0A28.351,28.351,0,0,0,273.6,273.6h0A28.351,28.351,0,0,0,236.269,271.178Z" style="fill:#cfcfcd"/><path d="M288,184H228.9c-6.006,0-23.372,0-37.765,0a17.638,17.638,0,0,0-17.293,21.1h0a17.635,17.635,0,0,0,20.745,13.835l21.119-4.215-14.682,11.011A17.391,17.391,0,0,0,219.236,255.2l19.512-9.755-9.781,13.041a18.445,18.445,0,0,0,6.507,27.565h0a18.444,18.444,0,0,0,20.253-2.493l24.935-16.617A88.237,88.237,0,0,0,304,244.15L320,191.5A71.68,71.68,0,0,0,288,184Z" style="fill:#4d5e78"/><path d="M440.64,436.184l-25.7-42.827A35.9,35.9,0,0,0,384.3,376H297.9l8.985-41.936a78.538,78.538,0,0,0,42.038-24.93,77.388,77.388,0,0,0,6.352-8.366l14.417-9.612A103.8,103.8,0,0,0,416,204.62v-9.29a103.422,103.422,0,0,0-57.5-93.019A11.781,11.781,0,0,1,363.78,80h23.03a21.189,21.189,0,0,0,4.16-41.965l-27.026-5.4-6.006-6.007A36.281,36.281,0,0,0,296,52.28V83.82a66.192,66.192,0,0,0,36.788,59.518A49.234,49.234,0,0,1,360,187.38q0,2.042-.165,3.981a48.783,48.783,0,0,1-5.027,18.035c-.25.5-.533.98-.8,1.47A79.966,79.966,0,0,0,288,176H128a64.072,64.072,0,0,0-64,64,23.457,23.457,0,0,0,23.45,23.41,23.028,23.028,0,0,0,14.538-5.154l6.181-4.945a23.453,23.453,0,0,0,19.281,10.1,23.028,23.028,0,0,0,14.538-5.154l7.556-6.045,2.4,4.409a150.983,150.983,0,0,0,34.6,42.717l-39.421,30.322a8,8,0,0,0-2.84,4.237L121.07,419.005,79.425,446.769l-3.372-1.687a21.148,21.148,0,0,0-24.41,33.875l8.32,8.32A29.586,29.586,0,0,0,81.02,496a29.965,29.965,0,0,0,9.082-1.419,29.488,29.488,0,0,0,8.23-4.133L150.17,453.39a44.619,44.619,0,0,0,16.079-21.165l24.107-66.3L240,343.868V416a8,8,0,0,0,8,8H379.471l19.408,32.348-1.447,2.889A22.254,22.254,0,0,0,430.7,486.985a38.646,38.646,0,0,0,9.944-50.8ZM390.826,55.526A5.187,5.187,0,0,1,386.81,64H368V49.759l19.821,3.964A5.158,5.158,0,0,1,390.826,55.526Zm-50.887,73.5A50.276,50.276,0,0,1,312,83.82V52.28a20.283,20.283,0,0,1,34.623-14.342L352,43.314V66.629a27.772,27.772,0,0,0-.647,50A87.425,87.425,0,0,1,399.271,184H375.9a65.2,65.2,0,0,0-35.964-54.975Zm29.174,87.537A64.714,64.714,0,0,0,374.757,200H400v4.62a87.8,87.8,0,0,1-33.6,69.164A77.631,77.631,0,0,0,368,258.16V256a79.559,79.559,0,0,0-5.449-28.964A65.459,65.459,0,0,0,369.113,216.562ZM352,256v2.162c.009,30.819-22.287,56.526-53,61.124a65.691,65.691,0,0,1-9.608.7h-3.77q-3.423,0-6.844-.175a36.327,36.327,0,0,0,5.472-45.648l.851-.567a95.9,95.9,0,0,0,25.452-24.859l-13.1-9.183a79.965,79.965,0,0,1-21.223,20.727L251.291,276.9a8.063,8.063,0,0,0-.77.583,10.446,10.446,0,0,1-15.155-14.2l9.781-13.041a8,8,0,0,0-9.977-11.955l-19.512,9.756a9.38,9.38,0,0,1-10.84-1.76,9.391,9.391,0,0,1,1.006-14.152l14.681-11.011a8,8,0,0,0-6.366-14.245l-21.118,4.216A9.638,9.638,0,1,1,191.136,192v0H288A64.072,64.072,0,0,1,352,256Zm-186.006-7.038-6.97-12.79A8,8,0,0,0,147,233.754L131.984,245.77a7.107,7.107,0,0,1-4.534,1.64A7.359,7.359,0,0,1,120,240a8,8,0,0,0-13-6.246L91.984,245.77a7.107,7.107,0,0,1-4.534,1.64A7.359,7.359,0,0,1,80,240a48.055,48.055,0,0,1,48-48h39.383a25.637,25.637,0,0,0,21.933,35.218,25.395,25.395,0,0,0,28.5,37.015,26.4,26.4,0,0,0,.089,10.985l-18.363,14.125A135.1,135.1,0,0,1,165.994,248.962Zm14.757,103.727a8.01,8.01,0,0,0-4.27,4.577l-25.271,69.5a28.69,28.69,0,0,1-10.343,13.61L89.018,477.439a13.518,13.518,0,0,1-3.77,1.9A13.955,13.955,0,0,1,81.02,480a13.689,13.689,0,0,1-9.743-4.037l-8.32-8.32A5.149,5.149,0,0,1,68.9,459.4l7.52,3.759a8,8,0,0,0,8.016-.5l48-32a7.993,7.993,0,0,0,3.28-4.552l23.292-85.4,66.982-51.521a26.419,26.419,0,0,0,34.539.792l10.381-6.918a20.307,20.307,0,0,1-4.64,26.49,143.648,143.648,0,0,1-31.381,19.087Zm240.342,121.5a6.256,6.256,0,0,1-9.35-7.8l3.41-6.81a8,8,0,0,0-.293-7.7l-24-40A8,8,0,0,0,384,408H256V335.821c1.189-.683,2.376-1.37,3.548-2.083a152.3,152.3,0,0,0,26.072,2.252h3.77c.239,0,.479-.011.718-.013l-9.93,46.347A8,8,0,0,0,288,392h96.3a19.825,19.825,0,0,1,16.921,9.586l25.7,42.828a22.647,22.647,0,0,1-5.826,29.774Z"/><rect x="328" y="48" width="16" height="16"/></g></svg>
